# xmcd CD database file
#
# Track frame offsets:
#	150
#	11300
#	22435
#	32354
#	53428
#	64242
#	94181
#	105245
#	123763
#	135952
#	154531
#	167048
#	184554
#	195614
#	210579
#	219962
#	231141
#	241140
#	256185
#	269666
#	289318
#	309496
#	321328
#
# Disc length: 4432 seconds
#
# Revision: 0
# Processed by: cddbd v1.5.2PL0 Copyright (c) Steve Scherf et al.
# Submitted via: Feurio! 1.68 - http://www.feurio.com
#
DISCID=31114e17
DTITLE=Various Artist - Wells, Kitty  and Melanie
DYEAR=1900
DGENRE=Countryrock
TTITLE0=Kitty Wells - It Wasn't God Who Made Honky Tonk Angels
TTITLE1=Kitty Wells - Dont Hang Around He's Married
TTITLE2=Kitty Wells - Jambalya
TTITLE3=Melanie - The Saddest Thing
TTITLE4=Kitty Wells - She'll Have To Go
TTITLE5=Melanie - Wild Horses
TTITLE6=Kitty Wells - Honky Tonky Waltz
TTITLE7=Melanie - Little Bit Of Me
TTITLE8=Kitty Wells - I'd Rather Stay Home
TTITLE9=Melanie - My Rainbow Race
TTITLE10=Kitty Wells - Release Me
TTITLE11=Melanie - Photograph
TTITLE12=Kitty Wells - A Mansion On The Hill
TTITLE13=Melanie - Purple Haze
TTITLE14=Kitty Wells - Slowly
TTITLE15=Melanie - Bitter Bad
TTITLE16=Kitty Wells - Truck Driver's Sweetheart
TTITLE17=Melanie - Steppin'
TTITLE18=Kitty Wells - Guilty
TTITLE19=Melanie - Mr.Tamborine Man
TTITLE20=Kitty Wells - Wild Side Of Life
TTITLE21=Kitty Wells - Amigo's Guitar
TTITLE22=Kitty Wells - Blues Are Setting In
EXTD=
EXTT0=
EXTT1=
EXTT2=
EXTT3=
EXTT4=
EXTT5=
EXTT6=
EXTT7=
EXTT8=
EXTT9=
EXTT10=
EXTT11=
EXTT12=
EXTT13=
EXTT14=
EXTT15=
EXTT16=
EXTT17=
EXTT18=
EXTT19=
EXTT20=
EXTT21=
EXTT22=
PLAYORDER=
